M48
INCH,TZ
T1C0.0118
T2C0.0315
T3C0.0394
%
G90
G05
T1
X48350Y-31600
X48350Y-33000
T2
X43700Y-33800
X43700Y-34800
X44800Y-26450
X44800Y-27450
X44800Y-28450
X44800Y-29450
X44800Y-30450
X44800Y-31450
X44800Y-32450
X45200Y-33800
X45200Y-34800
X47800Y-26450
X47800Y-27450
X47800Y-28450
X47800Y-29450
X47800Y-30450
X47800Y-31450
X47800Y-32450
X51166Y-26750
X53134Y-26750
T3
X46700Y-34850
X47700Y-34850
X48500Y-25050
X48700Y-34850
X49500Y-25050
X49700Y-28250
X49700Y-32250
X49700Y-34850
X50500Y-25050
X50700Y-28250
X50700Y-32250
X50700Y-34850
X51500Y-25050
X51700Y-28250
X51700Y-32250
X51700Y-34850
X52500Y-25050
X52700Y-28250
X52700Y-32250
X52700Y-34850
X53500Y-25050
X53700Y-28250
X53700Y-32250
X53700Y-34850
X54500Y-25050
X54500Y-26050
X54700Y-28250
X54700Y-32250
X54700Y-34850
T0
M30
