G04 #@! TF.GenerationSoftware,KiCad,Pcbnew,7.0.2*
G04 #@! TF.CreationDate,2025-03-19T22:04:08+13:00*
G04 #@! TF.ProjectId,C128_Pi1541_Interface,43313238-5f50-4693-9135-34315f496e74,rev?*
G04 #@! TF.SameCoordinates,Original*
G04 #@! TF.FileFunction,Legend,Top*
G04 #@! TF.FilePolarity,Positive*
%FSLAX46Y46*%
G04 Gerber Fmt 4.6, Leading zero omitted, Abs format (unit mm)*
G04 Created by KiCad (PCBNEW 7.0.2) date 2025-03-19 22:04:08*
%MOMM*%
%LPD*%
G01*
G04 APERTURE LIST*
%ADD10C,0.125000*%
%ADD11C,0.150000*%
%ADD12C,0.141000*%
%ADD13C,0.120000*%
G04 APERTURE END LIST*
D10*
X118958833Y-96789904D02*
X118958833Y-96028000D01*
X119549309Y-96408952D02*
X118368357Y-96408952D01*
X117999309Y-95075619D02*
X117999309Y-95551809D01*
X117999309Y-95551809D02*
X118737404Y-95599428D01*
X118737404Y-95599428D02*
X118663595Y-95551809D01*
X118663595Y-95551809D02*
X118589785Y-95456571D01*
X118589785Y-95456571D02*
X118589785Y-95218476D01*
X118589785Y-95218476D02*
X118663595Y-95123238D01*
X118663595Y-95123238D02*
X118737404Y-95075619D01*
X118737404Y-95075619D02*
X118885023Y-95028000D01*
X118885023Y-95028000D02*
X119254071Y-95028000D01*
X119254071Y-95028000D02*
X119401690Y-95075619D01*
X119401690Y-95075619D02*
X119475500Y-95123238D01*
X119475500Y-95123238D02*
X119549309Y-95218476D01*
X119549309Y-95218476D02*
X119549309Y-95456571D01*
X119549309Y-95456571D02*
X119475500Y-95551809D01*
X119475500Y-95551809D02*
X119401690Y-95599428D01*
X118515976Y-94694666D02*
X119549309Y-94456571D01*
X119549309Y-94456571D02*
X118515976Y-94218476D01*
X120510309Y-96599428D02*
X120510309Y-96408952D01*
X120510309Y-96408952D02*
X120584119Y-96313714D01*
X120584119Y-96313714D02*
X120731738Y-96218476D01*
X120731738Y-96218476D02*
X121026976Y-96170857D01*
X121026976Y-96170857D02*
X121543642Y-96170857D01*
X121543642Y-96170857D02*
X121838880Y-96218476D01*
X121838880Y-96218476D02*
X121986500Y-96313714D01*
X121986500Y-96313714D02*
X122060309Y-96408952D01*
X122060309Y-96408952D02*
X122060309Y-96599428D01*
X122060309Y-96599428D02*
X121986500Y-96694666D01*
X121986500Y-96694666D02*
X121838880Y-96789904D01*
X121838880Y-96789904D02*
X121543642Y-96837523D01*
X121543642Y-96837523D02*
X121026976Y-96837523D01*
X121026976Y-96837523D02*
X120731738Y-96789904D01*
X120731738Y-96789904D02*
X120584119Y-96694666D01*
X120584119Y-96694666D02*
X120510309Y-96599428D01*
X120510309Y-95742285D02*
X121765071Y-95742285D01*
X121765071Y-95742285D02*
X121912690Y-95694666D01*
X121912690Y-95694666D02*
X121986500Y-95647047D01*
X121986500Y-95647047D02*
X122060309Y-95551809D01*
X122060309Y-95551809D02*
X122060309Y-95361333D01*
X122060309Y-95361333D02*
X121986500Y-95266095D01*
X121986500Y-95266095D02*
X121912690Y-95218476D01*
X121912690Y-95218476D02*
X121765071Y-95170857D01*
X121765071Y-95170857D02*
X120510309Y-95170857D01*
X120510309Y-94837523D02*
X120510309Y-94266095D01*
X122060309Y-94551809D02*
X120510309Y-94551809D01*
X121912690Y-92599428D02*
X121986500Y-92647047D01*
X121986500Y-92647047D02*
X122060309Y-92789904D01*
X122060309Y-92789904D02*
X122060309Y-92885142D01*
X122060309Y-92885142D02*
X121986500Y-93027999D01*
X121986500Y-93027999D02*
X121838880Y-93123237D01*
X121838880Y-93123237D02*
X121691261Y-93170856D01*
X121691261Y-93170856D02*
X121396023Y-93218475D01*
X121396023Y-93218475D02*
X121174595Y-93218475D01*
X121174595Y-93218475D02*
X120879357Y-93170856D01*
X120879357Y-93170856D02*
X120731738Y-93123237D01*
X120731738Y-93123237D02*
X120584119Y-93027999D01*
X120584119Y-93027999D02*
X120510309Y-92885142D01*
X120510309Y-92885142D02*
X120510309Y-92789904D01*
X120510309Y-92789904D02*
X120584119Y-92647047D01*
X120584119Y-92647047D02*
X120657928Y-92599428D01*
X122060309Y-91694666D02*
X122060309Y-92170856D01*
X122060309Y-92170856D02*
X120510309Y-92170856D01*
X122060309Y-91361332D02*
X120510309Y-91361332D01*
X122060309Y-90789904D02*
X121174595Y-91218475D01*
X120510309Y-90789904D02*
X121396023Y-91361332D01*
X123021309Y-96599428D02*
X123021309Y-96408952D01*
X123021309Y-96408952D02*
X123095119Y-96313714D01*
X123095119Y-96313714D02*
X123242738Y-96218476D01*
X123242738Y-96218476D02*
X123537976Y-96170857D01*
X123537976Y-96170857D02*
X124054642Y-96170857D01*
X124054642Y-96170857D02*
X124349880Y-96218476D01*
X124349880Y-96218476D02*
X124497500Y-96313714D01*
X124497500Y-96313714D02*
X124571309Y-96408952D01*
X124571309Y-96408952D02*
X124571309Y-96599428D01*
X124571309Y-96599428D02*
X124497500Y-96694666D01*
X124497500Y-96694666D02*
X124349880Y-96789904D01*
X124349880Y-96789904D02*
X124054642Y-96837523D01*
X124054642Y-96837523D02*
X123537976Y-96837523D01*
X123537976Y-96837523D02*
X123242738Y-96789904D01*
X123242738Y-96789904D02*
X123095119Y-96694666D01*
X123095119Y-96694666D02*
X123021309Y-96599428D01*
X123021309Y-95742285D02*
X124276071Y-95742285D01*
X124276071Y-95742285D02*
X124423690Y-95694666D01*
X124423690Y-95694666D02*
X124497500Y-95647047D01*
X124497500Y-95647047D02*
X124571309Y-95551809D01*
X124571309Y-95551809D02*
X124571309Y-95361333D01*
X124571309Y-95361333D02*
X124497500Y-95266095D01*
X124497500Y-95266095D02*
X124423690Y-95218476D01*
X124423690Y-95218476D02*
X124276071Y-95170857D01*
X124276071Y-95170857D02*
X123021309Y-95170857D01*
X123021309Y-94837523D02*
X123021309Y-94266095D01*
X124571309Y-94551809D02*
X123021309Y-94551809D01*
X124571309Y-93170856D02*
X123021309Y-93170856D01*
X123021309Y-93170856D02*
X123021309Y-92932761D01*
X123021309Y-92932761D02*
X123095119Y-92789904D01*
X123095119Y-92789904D02*
X123242738Y-92694666D01*
X123242738Y-92694666D02*
X123390357Y-92647047D01*
X123390357Y-92647047D02*
X123685595Y-92599428D01*
X123685595Y-92599428D02*
X123907023Y-92599428D01*
X123907023Y-92599428D02*
X124202261Y-92647047D01*
X124202261Y-92647047D02*
X124349880Y-92694666D01*
X124349880Y-92694666D02*
X124497500Y-92789904D01*
X124497500Y-92789904D02*
X124571309Y-92932761D01*
X124571309Y-92932761D02*
X124571309Y-93170856D01*
X124128452Y-92218475D02*
X124128452Y-91742285D01*
X124571309Y-92313713D02*
X123021309Y-91980380D01*
X123021309Y-91980380D02*
X124571309Y-91647047D01*
X123021309Y-91456570D02*
X123021309Y-90885142D01*
X124571309Y-91170856D02*
X123021309Y-91170856D01*
X124128452Y-90599427D02*
X124128452Y-90123237D01*
X124571309Y-90694665D02*
X123021309Y-90361332D01*
X123021309Y-90361332D02*
X124571309Y-90027999D01*
X127082309Y-96789904D02*
X125532309Y-96789904D01*
X127082309Y-96313714D02*
X125532309Y-96313714D01*
X125532309Y-96313714D02*
X127082309Y-95742286D01*
X127082309Y-95742286D02*
X125532309Y-95742286D01*
X126639452Y-94551809D02*
X126639452Y-94075619D01*
X127082309Y-94647047D02*
X125532309Y-94313714D01*
X125532309Y-94313714D02*
X127082309Y-93980381D01*
X125532309Y-93789904D02*
X125532309Y-93218476D01*
X127082309Y-93504190D02*
X125532309Y-93504190D01*
X127082309Y-92885142D02*
X125532309Y-92885142D01*
X125532309Y-92885142D02*
X127082309Y-92313714D01*
X127082309Y-92313714D02*
X125532309Y-92313714D01*
X129593309Y-96789904D02*
X128043309Y-96789904D01*
X129593309Y-96313714D02*
X128043309Y-96313714D01*
X128043309Y-96313714D02*
X129593309Y-95742286D01*
X129593309Y-95742286D02*
X128043309Y-95742286D01*
X129445690Y-93932762D02*
X129519500Y-93980381D01*
X129519500Y-93980381D02*
X129593309Y-94123238D01*
X129593309Y-94123238D02*
X129593309Y-94218476D01*
X129593309Y-94218476D02*
X129519500Y-94361333D01*
X129519500Y-94361333D02*
X129371880Y-94456571D01*
X129371880Y-94456571D02*
X129224261Y-94504190D01*
X129224261Y-94504190D02*
X128929023Y-94551809D01*
X128929023Y-94551809D02*
X128707595Y-94551809D01*
X128707595Y-94551809D02*
X128412357Y-94504190D01*
X128412357Y-94504190D02*
X128264738Y-94456571D01*
X128264738Y-94456571D02*
X128117119Y-94361333D01*
X128117119Y-94361333D02*
X128043309Y-94218476D01*
X128043309Y-94218476D02*
X128043309Y-94123238D01*
X128043309Y-94123238D02*
X128117119Y-93980381D01*
X128117119Y-93980381D02*
X128190928Y-93932762D01*
X129593309Y-93028000D02*
X129593309Y-93504190D01*
X129593309Y-93504190D02*
X128043309Y-93504190D01*
X129593309Y-92694666D02*
X128043309Y-92694666D01*
X129593309Y-92123238D02*
X128707595Y-92551809D01*
X128043309Y-92123238D02*
X128929023Y-92694666D01*
X132104309Y-96789904D02*
X130554309Y-96789904D01*
X132104309Y-96313714D02*
X130554309Y-96313714D01*
X130554309Y-96313714D02*
X132104309Y-95742286D01*
X132104309Y-95742286D02*
X130554309Y-95742286D01*
X132104309Y-94504190D02*
X130554309Y-94504190D01*
X130554309Y-94504190D02*
X130554309Y-94266095D01*
X130554309Y-94266095D02*
X130628119Y-94123238D01*
X130628119Y-94123238D02*
X130775738Y-94028000D01*
X130775738Y-94028000D02*
X130923357Y-93980381D01*
X130923357Y-93980381D02*
X131218595Y-93932762D01*
X131218595Y-93932762D02*
X131440023Y-93932762D01*
X131440023Y-93932762D02*
X131735261Y-93980381D01*
X131735261Y-93980381D02*
X131882880Y-94028000D01*
X131882880Y-94028000D02*
X132030500Y-94123238D01*
X132030500Y-94123238D02*
X132104309Y-94266095D01*
X132104309Y-94266095D02*
X132104309Y-94504190D01*
X131661452Y-93551809D02*
X131661452Y-93075619D01*
X132104309Y-93647047D02*
X130554309Y-93313714D01*
X130554309Y-93313714D02*
X132104309Y-92980381D01*
X130554309Y-92789904D02*
X130554309Y-92218476D01*
X132104309Y-92504190D02*
X130554309Y-92504190D01*
X131661452Y-91932761D02*
X131661452Y-91456571D01*
X132104309Y-92027999D02*
X130554309Y-91694666D01*
X130554309Y-91694666D02*
X132104309Y-91361333D01*
X134615309Y-96789904D02*
X133065309Y-96789904D01*
X133065309Y-96789904D02*
X133065309Y-96408952D01*
X133065309Y-96408952D02*
X133139119Y-96313714D01*
X133139119Y-96313714D02*
X133212928Y-96266095D01*
X133212928Y-96266095D02*
X133360547Y-96218476D01*
X133360547Y-96218476D02*
X133581976Y-96218476D01*
X133581976Y-96218476D02*
X133729595Y-96266095D01*
X133729595Y-96266095D02*
X133803404Y-96313714D01*
X133803404Y-96313714D02*
X133877214Y-96408952D01*
X133877214Y-96408952D02*
X133877214Y-96789904D01*
X134615309Y-95789904D02*
X133581976Y-95789904D01*
X133065309Y-95789904D02*
X133139119Y-95837523D01*
X133139119Y-95837523D02*
X133212928Y-95789904D01*
X133212928Y-95789904D02*
X133139119Y-95742285D01*
X133139119Y-95742285D02*
X133065309Y-95789904D01*
X133065309Y-95789904D02*
X133212928Y-95789904D01*
X134615309Y-93980381D02*
X133877214Y-94313714D01*
X134615309Y-94551809D02*
X133065309Y-94551809D01*
X133065309Y-94551809D02*
X133065309Y-94170857D01*
X133065309Y-94170857D02*
X133139119Y-94075619D01*
X133139119Y-94075619D02*
X133212928Y-94028000D01*
X133212928Y-94028000D02*
X133360547Y-93980381D01*
X133360547Y-93980381D02*
X133581976Y-93980381D01*
X133581976Y-93980381D02*
X133729595Y-94028000D01*
X133729595Y-94028000D02*
X133803404Y-94075619D01*
X133803404Y-94075619D02*
X133877214Y-94170857D01*
X133877214Y-94170857D02*
X133877214Y-94551809D01*
X133803404Y-93551809D02*
X133803404Y-93218476D01*
X134615309Y-93075619D02*
X134615309Y-93551809D01*
X134615309Y-93551809D02*
X133065309Y-93551809D01*
X133065309Y-93551809D02*
X133065309Y-93075619D01*
X134541500Y-92694666D02*
X134615309Y-92551809D01*
X134615309Y-92551809D02*
X134615309Y-92313714D01*
X134615309Y-92313714D02*
X134541500Y-92218476D01*
X134541500Y-92218476D02*
X134467690Y-92170857D01*
X134467690Y-92170857D02*
X134320071Y-92123238D01*
X134320071Y-92123238D02*
X134172452Y-92123238D01*
X134172452Y-92123238D02*
X134024833Y-92170857D01*
X134024833Y-92170857D02*
X133951023Y-92218476D01*
X133951023Y-92218476D02*
X133877214Y-92313714D01*
X133877214Y-92313714D02*
X133803404Y-92504190D01*
X133803404Y-92504190D02*
X133729595Y-92599428D01*
X133729595Y-92599428D02*
X133655785Y-92647047D01*
X133655785Y-92647047D02*
X133508166Y-92694666D01*
X133508166Y-92694666D02*
X133360547Y-92694666D01*
X133360547Y-92694666D02*
X133212928Y-92647047D01*
X133212928Y-92647047D02*
X133139119Y-92599428D01*
X133139119Y-92599428D02*
X133065309Y-92504190D01*
X133065309Y-92504190D02*
X133065309Y-92266095D01*
X133065309Y-92266095D02*
X133139119Y-92123238D01*
X133803404Y-91694666D02*
X133803404Y-91361333D01*
X134615309Y-91218476D02*
X134615309Y-91694666D01*
X134615309Y-91694666D02*
X133065309Y-91694666D01*
X133065309Y-91694666D02*
X133065309Y-91218476D01*
X133065309Y-90932761D02*
X133065309Y-90361333D01*
X134615309Y-90647047D02*
X133065309Y-90647047D01*
X136535833Y-96789904D02*
X136535833Y-96028000D01*
X137126309Y-96408952D02*
X135945357Y-96408952D01*
X135576309Y-95647047D02*
X135576309Y-95028000D01*
X135576309Y-95028000D02*
X136166785Y-95361333D01*
X136166785Y-95361333D02*
X136166785Y-95218476D01*
X136166785Y-95218476D02*
X136240595Y-95123238D01*
X136240595Y-95123238D02*
X136314404Y-95075619D01*
X136314404Y-95075619D02*
X136462023Y-95028000D01*
X136462023Y-95028000D02*
X136831071Y-95028000D01*
X136831071Y-95028000D02*
X136978690Y-95075619D01*
X136978690Y-95075619D02*
X137052500Y-95123238D01*
X137052500Y-95123238D02*
X137126309Y-95218476D01*
X137126309Y-95218476D02*
X137126309Y-95504190D01*
X137126309Y-95504190D02*
X137052500Y-95599428D01*
X137052500Y-95599428D02*
X136978690Y-95647047D01*
X136092976Y-94694666D02*
X137126309Y-94456571D01*
X137126309Y-94456571D02*
X136092976Y-94218476D01*
X135576309Y-93932761D02*
X135576309Y-93313714D01*
X135576309Y-93313714D02*
X136166785Y-93647047D01*
X136166785Y-93647047D02*
X136166785Y-93504190D01*
X136166785Y-93504190D02*
X136240595Y-93408952D01*
X136240595Y-93408952D02*
X136314404Y-93361333D01*
X136314404Y-93361333D02*
X136462023Y-93313714D01*
X136462023Y-93313714D02*
X136831071Y-93313714D01*
X136831071Y-93313714D02*
X136978690Y-93361333D01*
X136978690Y-93361333D02*
X137052500Y-93408952D01*
X137052500Y-93408952D02*
X137126309Y-93504190D01*
X137126309Y-93504190D02*
X137126309Y-93789904D01*
X137126309Y-93789904D02*
X137052500Y-93885142D01*
X137052500Y-93885142D02*
X136978690Y-93932761D01*
X138161119Y-96266095D02*
X138087309Y-96361333D01*
X138087309Y-96361333D02*
X138087309Y-96504190D01*
X138087309Y-96504190D02*
X138161119Y-96647047D01*
X138161119Y-96647047D02*
X138308738Y-96742285D01*
X138308738Y-96742285D02*
X138456357Y-96789904D01*
X138456357Y-96789904D02*
X138751595Y-96837523D01*
X138751595Y-96837523D02*
X138973023Y-96837523D01*
X138973023Y-96837523D02*
X139268261Y-96789904D01*
X139268261Y-96789904D02*
X139415880Y-96742285D01*
X139415880Y-96742285D02*
X139563500Y-96647047D01*
X139563500Y-96647047D02*
X139637309Y-96504190D01*
X139637309Y-96504190D02*
X139637309Y-96408952D01*
X139637309Y-96408952D02*
X139563500Y-96266095D01*
X139563500Y-96266095D02*
X139489690Y-96218476D01*
X139489690Y-96218476D02*
X138973023Y-96218476D01*
X138973023Y-96218476D02*
X138973023Y-96408952D01*
X139637309Y-95789904D02*
X138087309Y-95789904D01*
X138087309Y-95789904D02*
X139637309Y-95218476D01*
X139637309Y-95218476D02*
X138087309Y-95218476D01*
X139637309Y-94742285D02*
X138087309Y-94742285D01*
X138087309Y-94742285D02*
X138087309Y-94504190D01*
X138087309Y-94504190D02*
X138161119Y-94361333D01*
X138161119Y-94361333D02*
X138308738Y-94266095D01*
X138308738Y-94266095D02*
X138456357Y-94218476D01*
X138456357Y-94218476D02*
X138751595Y-94170857D01*
X138751595Y-94170857D02*
X138973023Y-94170857D01*
X138973023Y-94170857D02*
X139268261Y-94218476D01*
X139268261Y-94218476D02*
X139415880Y-94266095D01*
X139415880Y-94266095D02*
X139563500Y-94361333D01*
X139563500Y-94361333D02*
X139637309Y-94504190D01*
X139637309Y-94504190D02*
X139637309Y-94742285D01*
X110303380Y-83391476D02*
X110351000Y-83439095D01*
X110351000Y-83439095D02*
X110398619Y-83581952D01*
X110398619Y-83581952D02*
X110398619Y-83677190D01*
X110398619Y-83677190D02*
X110351000Y-83820047D01*
X110351000Y-83820047D02*
X110255761Y-83915285D01*
X110255761Y-83915285D02*
X110160523Y-83962904D01*
X110160523Y-83962904D02*
X109970047Y-84010523D01*
X109970047Y-84010523D02*
X109827190Y-84010523D01*
X109827190Y-84010523D02*
X109636714Y-83962904D01*
X109636714Y-83962904D02*
X109541476Y-83915285D01*
X109541476Y-83915285D02*
X109446238Y-83820047D01*
X109446238Y-83820047D02*
X109398619Y-83677190D01*
X109398619Y-83677190D02*
X109398619Y-83581952D01*
X109398619Y-83581952D02*
X109446238Y-83439095D01*
X109446238Y-83439095D02*
X109493857Y-83391476D01*
X110398619Y-82439095D02*
X110398619Y-83010523D01*
X110398619Y-82724809D02*
X109398619Y-82724809D01*
X109398619Y-82724809D02*
X109541476Y-82820047D01*
X109541476Y-82820047D02*
X109636714Y-82915285D01*
X109636714Y-82915285D02*
X109684333Y-83010523D01*
X109493857Y-82058142D02*
X109446238Y-82010523D01*
X109446238Y-82010523D02*
X109398619Y-81915285D01*
X109398619Y-81915285D02*
X109398619Y-81677190D01*
X109398619Y-81677190D02*
X109446238Y-81581952D01*
X109446238Y-81581952D02*
X109493857Y-81534333D01*
X109493857Y-81534333D02*
X109589095Y-81486714D01*
X109589095Y-81486714D02*
X109684333Y-81486714D01*
X109684333Y-81486714D02*
X109827190Y-81534333D01*
X109827190Y-81534333D02*
X110398619Y-82105761D01*
X110398619Y-82105761D02*
X110398619Y-81486714D01*
X109827190Y-80915285D02*
X109779571Y-81010523D01*
X109779571Y-81010523D02*
X109731952Y-81058142D01*
X109731952Y-81058142D02*
X109636714Y-81105761D01*
X109636714Y-81105761D02*
X109589095Y-81105761D01*
X109589095Y-81105761D02*
X109493857Y-81058142D01*
X109493857Y-81058142D02*
X109446238Y-81010523D01*
X109446238Y-81010523D02*
X109398619Y-80915285D01*
X109398619Y-80915285D02*
X109398619Y-80724809D01*
X109398619Y-80724809D02*
X109446238Y-80629571D01*
X109446238Y-80629571D02*
X109493857Y-80581952D01*
X109493857Y-80581952D02*
X109589095Y-80534333D01*
X109589095Y-80534333D02*
X109636714Y-80534333D01*
X109636714Y-80534333D02*
X109731952Y-80581952D01*
X109731952Y-80581952D02*
X109779571Y-80629571D01*
X109779571Y-80629571D02*
X109827190Y-80724809D01*
X109827190Y-80724809D02*
X109827190Y-80915285D01*
X109827190Y-80915285D02*
X109874809Y-81010523D01*
X109874809Y-81010523D02*
X109922428Y-81058142D01*
X109922428Y-81058142D02*
X110017666Y-81105761D01*
X110017666Y-81105761D02*
X110208142Y-81105761D01*
X110208142Y-81105761D02*
X110303380Y-81058142D01*
X110303380Y-81058142D02*
X110351000Y-81010523D01*
X110351000Y-81010523D02*
X110398619Y-80915285D01*
X110398619Y-80915285D02*
X110398619Y-80724809D01*
X110398619Y-80724809D02*
X110351000Y-80629571D01*
X110351000Y-80629571D02*
X110303380Y-80581952D01*
X110303380Y-80581952D02*
X110208142Y-80534333D01*
X110208142Y-80534333D02*
X110017666Y-80534333D01*
X110017666Y-80534333D02*
X109922428Y-80581952D01*
X109922428Y-80581952D02*
X109874809Y-80629571D01*
X109874809Y-80629571D02*
X109827190Y-80724809D01*
X110398619Y-79343856D02*
X109398619Y-79343856D01*
X109398619Y-79343856D02*
X109398619Y-78962904D01*
X109398619Y-78962904D02*
X109446238Y-78867666D01*
X109446238Y-78867666D02*
X109493857Y-78820047D01*
X109493857Y-78820047D02*
X109589095Y-78772428D01*
X109589095Y-78772428D02*
X109731952Y-78772428D01*
X109731952Y-78772428D02*
X109827190Y-78820047D01*
X109827190Y-78820047D02*
X109874809Y-78867666D01*
X109874809Y-78867666D02*
X109922428Y-78962904D01*
X109922428Y-78962904D02*
X109922428Y-79343856D01*
X110398619Y-78343856D02*
X109731952Y-78343856D01*
X109398619Y-78343856D02*
X109446238Y-78391475D01*
X109446238Y-78391475D02*
X109493857Y-78343856D01*
X109493857Y-78343856D02*
X109446238Y-78296237D01*
X109446238Y-78296237D02*
X109398619Y-78343856D01*
X109398619Y-78343856D02*
X109493857Y-78343856D01*
X110398619Y-77343857D02*
X110398619Y-77915285D01*
X110398619Y-77629571D02*
X109398619Y-77629571D01*
X109398619Y-77629571D02*
X109541476Y-77724809D01*
X109541476Y-77724809D02*
X109636714Y-77820047D01*
X109636714Y-77820047D02*
X109684333Y-77915285D01*
X109398619Y-76439095D02*
X109398619Y-76915285D01*
X109398619Y-76915285D02*
X109874809Y-76962904D01*
X109874809Y-76962904D02*
X109827190Y-76915285D01*
X109827190Y-76915285D02*
X109779571Y-76820047D01*
X109779571Y-76820047D02*
X109779571Y-76581952D01*
X109779571Y-76581952D02*
X109827190Y-76486714D01*
X109827190Y-76486714D02*
X109874809Y-76439095D01*
X109874809Y-76439095D02*
X109970047Y-76391476D01*
X109970047Y-76391476D02*
X110208142Y-76391476D01*
X110208142Y-76391476D02*
X110303380Y-76439095D01*
X110303380Y-76439095D02*
X110351000Y-76486714D01*
X110351000Y-76486714D02*
X110398619Y-76581952D01*
X110398619Y-76581952D02*
X110398619Y-76820047D01*
X110398619Y-76820047D02*
X110351000Y-76915285D01*
X110351000Y-76915285D02*
X110303380Y-76962904D01*
X109731952Y-75534333D02*
X110398619Y-75534333D01*
X109351000Y-75772428D02*
X110065285Y-76010523D01*
X110065285Y-76010523D02*
X110065285Y-75391476D01*
X110398619Y-74486714D02*
X110398619Y-75058142D01*
X110398619Y-74772428D02*
X109398619Y-74772428D01*
X109398619Y-74772428D02*
X109541476Y-74867666D01*
X109541476Y-74867666D02*
X109636714Y-74962904D01*
X109636714Y-74962904D02*
X109684333Y-75058142D01*
X110398619Y-73296237D02*
X109398619Y-73296237D01*
X109731952Y-72820047D02*
X110398619Y-72820047D01*
X109827190Y-72820047D02*
X109779571Y-72772428D01*
X109779571Y-72772428D02*
X109731952Y-72677190D01*
X109731952Y-72677190D02*
X109731952Y-72534333D01*
X109731952Y-72534333D02*
X109779571Y-72439095D01*
X109779571Y-72439095D02*
X109874809Y-72391476D01*
X109874809Y-72391476D02*
X110398619Y-72391476D01*
X109731952Y-72058142D02*
X109731952Y-71677190D01*
X109398619Y-71915285D02*
X110255761Y-71915285D01*
X110255761Y-71915285D02*
X110351000Y-71867666D01*
X110351000Y-71867666D02*
X110398619Y-71772428D01*
X110398619Y-71772428D02*
X110398619Y-71677190D01*
X110351000Y-70962904D02*
X110398619Y-71058142D01*
X110398619Y-71058142D02*
X110398619Y-71248618D01*
X110398619Y-71248618D02*
X110351000Y-71343856D01*
X110351000Y-71343856D02*
X110255761Y-71391475D01*
X110255761Y-71391475D02*
X109874809Y-71391475D01*
X109874809Y-71391475D02*
X109779571Y-71343856D01*
X109779571Y-71343856D02*
X109731952Y-71248618D01*
X109731952Y-71248618D02*
X109731952Y-71058142D01*
X109731952Y-71058142D02*
X109779571Y-70962904D01*
X109779571Y-70962904D02*
X109874809Y-70915285D01*
X109874809Y-70915285D02*
X109970047Y-70915285D01*
X109970047Y-70915285D02*
X110065285Y-71391475D01*
X110398619Y-70486713D02*
X109731952Y-70486713D01*
X109922428Y-70486713D02*
X109827190Y-70439094D01*
X109827190Y-70439094D02*
X109779571Y-70391475D01*
X109779571Y-70391475D02*
X109731952Y-70296237D01*
X109731952Y-70296237D02*
X109731952Y-70200999D01*
X109731952Y-70010522D02*
X109731952Y-69629570D01*
X110398619Y-69867665D02*
X109541476Y-69867665D01*
X109541476Y-69867665D02*
X109446238Y-69820046D01*
X109446238Y-69820046D02*
X109398619Y-69724808D01*
X109398619Y-69724808D02*
X109398619Y-69629570D01*
X110398619Y-68867665D02*
X109874809Y-68867665D01*
X109874809Y-68867665D02*
X109779571Y-68915284D01*
X109779571Y-68915284D02*
X109731952Y-69010522D01*
X109731952Y-69010522D02*
X109731952Y-69200998D01*
X109731952Y-69200998D02*
X109779571Y-69296236D01*
X110351000Y-68867665D02*
X110398619Y-68962903D01*
X110398619Y-68962903D02*
X110398619Y-69200998D01*
X110398619Y-69200998D02*
X110351000Y-69296236D01*
X110351000Y-69296236D02*
X110255761Y-69343855D01*
X110255761Y-69343855D02*
X110160523Y-69343855D01*
X110160523Y-69343855D02*
X110065285Y-69296236D01*
X110065285Y-69296236D02*
X110017666Y-69200998D01*
X110017666Y-69200998D02*
X110017666Y-68962903D01*
X110017666Y-68962903D02*
X109970047Y-68867665D01*
X110351000Y-67962903D02*
X110398619Y-68058141D01*
X110398619Y-68058141D02*
X110398619Y-68248617D01*
X110398619Y-68248617D02*
X110351000Y-68343855D01*
X110351000Y-68343855D02*
X110303380Y-68391474D01*
X110303380Y-68391474D02*
X110208142Y-68439093D01*
X110208142Y-68439093D02*
X109922428Y-68439093D01*
X109922428Y-68439093D02*
X109827190Y-68391474D01*
X109827190Y-68391474D02*
X109779571Y-68343855D01*
X109779571Y-68343855D02*
X109731952Y-68248617D01*
X109731952Y-68248617D02*
X109731952Y-68058141D01*
X109731952Y-68058141D02*
X109779571Y-67962903D01*
X110351000Y-67153379D02*
X110398619Y-67248617D01*
X110398619Y-67248617D02*
X110398619Y-67439093D01*
X110398619Y-67439093D02*
X110351000Y-67534331D01*
X110351000Y-67534331D02*
X110255761Y-67581950D01*
X110255761Y-67581950D02*
X109874809Y-67581950D01*
X109874809Y-67581950D02*
X109779571Y-67534331D01*
X109779571Y-67534331D02*
X109731952Y-67439093D01*
X109731952Y-67439093D02*
X109731952Y-67248617D01*
X109731952Y-67248617D02*
X109779571Y-67153379D01*
X109779571Y-67153379D02*
X109874809Y-67105760D01*
X109874809Y-67105760D02*
X109970047Y-67105760D01*
X109970047Y-67105760D02*
X110065285Y-67581950D01*
X112399571Y-83677190D02*
X112351952Y-83724809D01*
X112351952Y-83724809D02*
X112209095Y-83820047D01*
X112209095Y-83820047D02*
X112113857Y-83867666D01*
X112113857Y-83867666D02*
X111971000Y-83915285D01*
X111971000Y-83915285D02*
X111732904Y-83962904D01*
X111732904Y-83962904D02*
X111542428Y-83962904D01*
X111542428Y-83962904D02*
X111304333Y-83915285D01*
X111304333Y-83915285D02*
X111161476Y-83867666D01*
X111161476Y-83867666D02*
X111066238Y-83820047D01*
X111066238Y-83820047D02*
X110923380Y-83724809D01*
X110923380Y-83724809D02*
X110875761Y-83677190D01*
X111971000Y-82867666D02*
X112018619Y-82962904D01*
X112018619Y-82962904D02*
X112018619Y-83153380D01*
X112018619Y-83153380D02*
X111971000Y-83248618D01*
X111971000Y-83248618D02*
X111923380Y-83296237D01*
X111923380Y-83296237D02*
X111828142Y-83343856D01*
X111828142Y-83343856D02*
X111542428Y-83343856D01*
X111542428Y-83343856D02*
X111447190Y-83296237D01*
X111447190Y-83296237D02*
X111399571Y-83248618D01*
X111399571Y-83248618D02*
X111351952Y-83153380D01*
X111351952Y-83153380D02*
X111351952Y-82962904D01*
X111351952Y-82962904D02*
X111399571Y-82867666D01*
X112399571Y-82534332D02*
X112351952Y-82486713D01*
X112351952Y-82486713D02*
X112209095Y-82391475D01*
X112209095Y-82391475D02*
X112113857Y-82343856D01*
X112113857Y-82343856D02*
X111971000Y-82296237D01*
X111971000Y-82296237D02*
X111732904Y-82248618D01*
X111732904Y-82248618D02*
X111542428Y-82248618D01*
X111542428Y-82248618D02*
X111304333Y-82296237D01*
X111304333Y-82296237D02*
X111161476Y-82343856D01*
X111161476Y-82343856D02*
X111066238Y-82391475D01*
X111066238Y-82391475D02*
X110923380Y-82486713D01*
X110923380Y-82486713D02*
X110875761Y-82534332D01*
X111113857Y-81058141D02*
X111066238Y-81010522D01*
X111066238Y-81010522D02*
X111018619Y-80915284D01*
X111018619Y-80915284D02*
X111018619Y-80677189D01*
X111018619Y-80677189D02*
X111066238Y-80581951D01*
X111066238Y-80581951D02*
X111113857Y-80534332D01*
X111113857Y-80534332D02*
X111209095Y-80486713D01*
X111209095Y-80486713D02*
X111304333Y-80486713D01*
X111304333Y-80486713D02*
X111447190Y-80534332D01*
X111447190Y-80534332D02*
X112018619Y-81105760D01*
X112018619Y-81105760D02*
X112018619Y-80486713D01*
X111018619Y-79867665D02*
X111018619Y-79772427D01*
X111018619Y-79772427D02*
X111066238Y-79677189D01*
X111066238Y-79677189D02*
X111113857Y-79629570D01*
X111113857Y-79629570D02*
X111209095Y-79581951D01*
X111209095Y-79581951D02*
X111399571Y-79534332D01*
X111399571Y-79534332D02*
X111637666Y-79534332D01*
X111637666Y-79534332D02*
X111828142Y-79581951D01*
X111828142Y-79581951D02*
X111923380Y-79629570D01*
X111923380Y-79629570D02*
X111971000Y-79677189D01*
X111971000Y-79677189D02*
X112018619Y-79772427D01*
X112018619Y-79772427D02*
X112018619Y-79867665D01*
X112018619Y-79867665D02*
X111971000Y-79962903D01*
X111971000Y-79962903D02*
X111923380Y-80010522D01*
X111923380Y-80010522D02*
X111828142Y-80058141D01*
X111828142Y-80058141D02*
X111637666Y-80105760D01*
X111637666Y-80105760D02*
X111399571Y-80105760D01*
X111399571Y-80105760D02*
X111209095Y-80058141D01*
X111209095Y-80058141D02*
X111113857Y-80010522D01*
X111113857Y-80010522D02*
X111066238Y-79962903D01*
X111066238Y-79962903D02*
X111018619Y-79867665D01*
X111113857Y-79153379D02*
X111066238Y-79105760D01*
X111066238Y-79105760D02*
X111018619Y-79010522D01*
X111018619Y-79010522D02*
X111018619Y-78772427D01*
X111018619Y-78772427D02*
X111066238Y-78677189D01*
X111066238Y-78677189D02*
X111113857Y-78629570D01*
X111113857Y-78629570D02*
X111209095Y-78581951D01*
X111209095Y-78581951D02*
X111304333Y-78581951D01*
X111304333Y-78581951D02*
X111447190Y-78629570D01*
X111447190Y-78629570D02*
X112018619Y-79200998D01*
X112018619Y-79200998D02*
X112018619Y-78581951D01*
X111018619Y-77677189D02*
X111018619Y-78153379D01*
X111018619Y-78153379D02*
X111494809Y-78200998D01*
X111494809Y-78200998D02*
X111447190Y-78153379D01*
X111447190Y-78153379D02*
X111399571Y-78058141D01*
X111399571Y-78058141D02*
X111399571Y-77820046D01*
X111399571Y-77820046D02*
X111447190Y-77724808D01*
X111447190Y-77724808D02*
X111494809Y-77677189D01*
X111494809Y-77677189D02*
X111590047Y-77629570D01*
X111590047Y-77629570D02*
X111828142Y-77629570D01*
X111828142Y-77629570D02*
X111923380Y-77677189D01*
X111923380Y-77677189D02*
X111971000Y-77724808D01*
X111971000Y-77724808D02*
X112018619Y-77820046D01*
X112018619Y-77820046D02*
X112018619Y-78058141D01*
X112018619Y-78058141D02*
X111971000Y-78153379D01*
X111971000Y-78153379D02*
X111923380Y-78200998D01*
X112018619Y-75867665D02*
X111542428Y-76200998D01*
X112018619Y-76439093D02*
X111018619Y-76439093D01*
X111018619Y-76439093D02*
X111018619Y-76058141D01*
X111018619Y-76058141D02*
X111066238Y-75962903D01*
X111066238Y-75962903D02*
X111113857Y-75915284D01*
X111113857Y-75915284D02*
X111209095Y-75867665D01*
X111209095Y-75867665D02*
X111351952Y-75867665D01*
X111351952Y-75867665D02*
X111447190Y-75915284D01*
X111447190Y-75915284D02*
X111494809Y-75962903D01*
X111494809Y-75962903D02*
X111542428Y-76058141D01*
X111542428Y-76058141D02*
X111542428Y-76439093D01*
X111971000Y-75058141D02*
X112018619Y-75153379D01*
X112018619Y-75153379D02*
X112018619Y-75343855D01*
X112018619Y-75343855D02*
X111971000Y-75439093D01*
X111971000Y-75439093D02*
X111875761Y-75486712D01*
X111875761Y-75486712D02*
X111494809Y-75486712D01*
X111494809Y-75486712D02*
X111399571Y-75439093D01*
X111399571Y-75439093D02*
X111351952Y-75343855D01*
X111351952Y-75343855D02*
X111351952Y-75153379D01*
X111351952Y-75153379D02*
X111399571Y-75058141D01*
X111399571Y-75058141D02*
X111494809Y-75010522D01*
X111494809Y-75010522D02*
X111590047Y-75010522D01*
X111590047Y-75010522D02*
X111685285Y-75486712D01*
X111351952Y-74724807D02*
X111351952Y-74343855D01*
X111018619Y-74581950D02*
X111875761Y-74581950D01*
X111875761Y-74581950D02*
X111971000Y-74534331D01*
X111971000Y-74534331D02*
X112018619Y-74439093D01*
X112018619Y-74439093D02*
X112018619Y-74343855D01*
X112018619Y-74010521D02*
X111351952Y-74010521D01*
X111542428Y-74010521D02*
X111447190Y-73962902D01*
X111447190Y-73962902D02*
X111399571Y-73915283D01*
X111399571Y-73915283D02*
X111351952Y-73820045D01*
X111351952Y-73820045D02*
X111351952Y-73724807D01*
X112018619Y-73248616D02*
X111971000Y-73343854D01*
X111971000Y-73343854D02*
X111923380Y-73391473D01*
X111923380Y-73391473D02*
X111828142Y-73439092D01*
X111828142Y-73439092D02*
X111542428Y-73439092D01*
X111542428Y-73439092D02*
X111447190Y-73391473D01*
X111447190Y-73391473D02*
X111399571Y-73343854D01*
X111399571Y-73343854D02*
X111351952Y-73248616D01*
X111351952Y-73248616D02*
X111351952Y-73105759D01*
X111351952Y-73105759D02*
X111399571Y-73010521D01*
X111399571Y-73010521D02*
X111447190Y-72962902D01*
X111447190Y-72962902D02*
X111542428Y-72915283D01*
X111542428Y-72915283D02*
X111828142Y-72915283D01*
X111828142Y-72915283D02*
X111923380Y-72962902D01*
X111923380Y-72962902D02*
X111971000Y-73010521D01*
X111971000Y-73010521D02*
X112018619Y-73105759D01*
X112018619Y-73105759D02*
X112018619Y-73248616D01*
X111018619Y-71867663D02*
X111018619Y-71296235D01*
X112018619Y-71581949D02*
X111018619Y-71581949D01*
X111971000Y-70581949D02*
X112018619Y-70677187D01*
X112018619Y-70677187D02*
X112018619Y-70867663D01*
X112018619Y-70867663D02*
X111971000Y-70962901D01*
X111971000Y-70962901D02*
X111875761Y-71010520D01*
X111875761Y-71010520D02*
X111494809Y-71010520D01*
X111494809Y-71010520D02*
X111399571Y-70962901D01*
X111399571Y-70962901D02*
X111351952Y-70867663D01*
X111351952Y-70867663D02*
X111351952Y-70677187D01*
X111351952Y-70677187D02*
X111399571Y-70581949D01*
X111399571Y-70581949D02*
X111494809Y-70534330D01*
X111494809Y-70534330D02*
X111590047Y-70534330D01*
X111590047Y-70534330D02*
X111685285Y-71010520D01*
X111971000Y-69677187D02*
X112018619Y-69772425D01*
X112018619Y-69772425D02*
X112018619Y-69962901D01*
X112018619Y-69962901D02*
X111971000Y-70058139D01*
X111971000Y-70058139D02*
X111923380Y-70105758D01*
X111923380Y-70105758D02*
X111828142Y-70153377D01*
X111828142Y-70153377D02*
X111542428Y-70153377D01*
X111542428Y-70153377D02*
X111447190Y-70105758D01*
X111447190Y-70105758D02*
X111399571Y-70058139D01*
X111399571Y-70058139D02*
X111351952Y-69962901D01*
X111351952Y-69962901D02*
X111351952Y-69772425D01*
X111351952Y-69772425D02*
X111399571Y-69677187D01*
X112018619Y-69248615D02*
X111018619Y-69248615D01*
X112018619Y-68820044D02*
X111494809Y-68820044D01*
X111494809Y-68820044D02*
X111399571Y-68867663D01*
X111399571Y-68867663D02*
X111351952Y-68962901D01*
X111351952Y-68962901D02*
X111351952Y-69105758D01*
X111351952Y-69105758D02*
X111399571Y-69200996D01*
X111399571Y-69200996D02*
X111447190Y-69248615D01*
X112018619Y-67581948D02*
X111018619Y-67581948D01*
X111351952Y-67105758D02*
X112018619Y-67105758D01*
X111447190Y-67105758D02*
X111399571Y-67058139D01*
X111399571Y-67058139D02*
X111351952Y-66962901D01*
X111351952Y-66962901D02*
X111351952Y-66820044D01*
X111351952Y-66820044D02*
X111399571Y-66724806D01*
X111399571Y-66724806D02*
X111494809Y-66677187D01*
X111494809Y-66677187D02*
X112018619Y-66677187D01*
X111971000Y-66248615D02*
X112018619Y-66153377D01*
X112018619Y-66153377D02*
X112018619Y-65962901D01*
X112018619Y-65962901D02*
X111971000Y-65867663D01*
X111971000Y-65867663D02*
X111875761Y-65820044D01*
X111875761Y-65820044D02*
X111828142Y-65820044D01*
X111828142Y-65820044D02*
X111732904Y-65867663D01*
X111732904Y-65867663D02*
X111685285Y-65962901D01*
X111685285Y-65962901D02*
X111685285Y-66105758D01*
X111685285Y-66105758D02*
X111637666Y-66200996D01*
X111637666Y-66200996D02*
X111542428Y-66248615D01*
X111542428Y-66248615D02*
X111494809Y-66248615D01*
X111494809Y-66248615D02*
X111399571Y-66200996D01*
X111399571Y-66200996D02*
X111351952Y-66105758D01*
X111351952Y-66105758D02*
X111351952Y-65962901D01*
X111351952Y-65962901D02*
X111399571Y-65867663D01*
X112018619Y-64962901D02*
X111494809Y-64962901D01*
X111494809Y-64962901D02*
X111399571Y-65010520D01*
X111399571Y-65010520D02*
X111351952Y-65105758D01*
X111351952Y-65105758D02*
X111351952Y-65296234D01*
X111351952Y-65296234D02*
X111399571Y-65391472D01*
X111971000Y-64962901D02*
X112018619Y-65058139D01*
X112018619Y-65058139D02*
X112018619Y-65296234D01*
X112018619Y-65296234D02*
X111971000Y-65391472D01*
X111971000Y-65391472D02*
X111875761Y-65439091D01*
X111875761Y-65439091D02*
X111780523Y-65439091D01*
X111780523Y-65439091D02*
X111685285Y-65391472D01*
X111685285Y-65391472D02*
X111637666Y-65296234D01*
X111637666Y-65296234D02*
X111637666Y-65058139D01*
X111637666Y-65058139D02*
X111590047Y-64962901D01*
X111351952Y-64486710D02*
X112018619Y-64486710D01*
X111447190Y-64486710D02*
X111399571Y-64439091D01*
X111399571Y-64439091D02*
X111351952Y-64343853D01*
X111351952Y-64343853D02*
X111351952Y-64200996D01*
X111351952Y-64200996D02*
X111399571Y-64105758D01*
X111399571Y-64105758D02*
X111494809Y-64058139D01*
X111494809Y-64058139D02*
X112018619Y-64058139D01*
X112018619Y-63581948D02*
X111351952Y-63581948D01*
X111018619Y-63581948D02*
X111066238Y-63629567D01*
X111066238Y-63629567D02*
X111113857Y-63581948D01*
X111113857Y-63581948D02*
X111066238Y-63534329D01*
X111066238Y-63534329D02*
X111018619Y-63581948D01*
X111018619Y-63581948D02*
X111113857Y-63581948D01*
X111351952Y-63248615D02*
X111351952Y-62867663D01*
X111018619Y-63105758D02*
X111875761Y-63105758D01*
X111875761Y-63105758D02*
X111971000Y-63058139D01*
X111971000Y-63058139D02*
X112018619Y-62962901D01*
X112018619Y-62962901D02*
X112018619Y-62867663D01*
X111351952Y-62629567D02*
X112018619Y-62391472D01*
X111351952Y-62153377D02*
X112018619Y-62391472D01*
X112018619Y-62391472D02*
X112256714Y-62486710D01*
X112256714Y-62486710D02*
X112304333Y-62534329D01*
X112304333Y-62534329D02*
X112351952Y-62629567D01*
D11*
X138207714Y-68357000D02*
X139122000Y-68357000D01*
X138664857Y-68814142D02*
X138664857Y-67899857D01*
X140264856Y-67614142D02*
X139693428Y-67614142D01*
X139693428Y-67614142D02*
X139636285Y-68185571D01*
X139636285Y-68185571D02*
X139693428Y-68128428D01*
X139693428Y-68128428D02*
X139807714Y-68071285D01*
X139807714Y-68071285D02*
X140093428Y-68071285D01*
X140093428Y-68071285D02*
X140207714Y-68128428D01*
X140207714Y-68128428D02*
X140264856Y-68185571D01*
X140264856Y-68185571D02*
X140321999Y-68299857D01*
X140321999Y-68299857D02*
X140321999Y-68585571D01*
X140321999Y-68585571D02*
X140264856Y-68699857D01*
X140264856Y-68699857D02*
X140207714Y-68757000D01*
X140207714Y-68757000D02*
X140093428Y-68814142D01*
X140093428Y-68814142D02*
X139807714Y-68814142D01*
X139807714Y-68814142D02*
X139693428Y-68757000D01*
X139693428Y-68757000D02*
X139636285Y-68699857D01*
X140721999Y-68014142D02*
X141007713Y-68814142D01*
X141007713Y-68814142D02*
X141293428Y-68014142D01*
X130587714Y-74412142D02*
X130587714Y-73212142D01*
X130587714Y-73783571D02*
X131273428Y-73783571D01*
X131273428Y-74412142D02*
X131273428Y-73212142D01*
X131673428Y-73212142D02*
X132073428Y-74412142D01*
X132073428Y-74412142D02*
X132473428Y-73212142D01*
X131159142Y-80244142D02*
X130587714Y-80244142D01*
X130587714Y-80244142D02*
X130587714Y-79044142D01*
X131387714Y-79044142D02*
X131787714Y-80244142D01*
X131787714Y-80244142D02*
X132187714Y-79044142D01*
G04 #@! TO.C,*
X110878952Y-91902619D02*
X110307524Y-91902619D01*
X110593238Y-91902619D02*
X110593238Y-90902619D01*
X110593238Y-90902619D02*
X110498000Y-91045476D01*
X110498000Y-91045476D02*
X110402762Y-91140714D01*
X110402762Y-91140714D02*
X110307524Y-91188333D01*
X111307524Y-91902619D02*
X111307524Y-90902619D01*
X111402762Y-91521666D02*
X111688476Y-91902619D01*
X111688476Y-91235952D02*
X111307524Y-91616904D01*
G04 #@! TO.C,U1*
X116840095Y-64315619D02*
X116840095Y-65125142D01*
X116840095Y-65125142D02*
X116887714Y-65220380D01*
X116887714Y-65220380D02*
X116935333Y-65268000D01*
X116935333Y-65268000D02*
X117030571Y-65315619D01*
X117030571Y-65315619D02*
X117221047Y-65315619D01*
X117221047Y-65315619D02*
X117316285Y-65268000D01*
X117316285Y-65268000D02*
X117363904Y-65220380D01*
X117363904Y-65220380D02*
X117411523Y-65125142D01*
X117411523Y-65125142D02*
X117411523Y-64315619D01*
X118411523Y-65315619D02*
X117840095Y-65315619D01*
X118125809Y-65315619D02*
X118125809Y-64315619D01*
X118125809Y-64315619D02*
X118030571Y-64458476D01*
X118030571Y-64458476D02*
X117935333Y-64553714D01*
X117935333Y-64553714D02*
X117840095Y-64601333D01*
X115840095Y-74265619D02*
X116506761Y-74265619D01*
X116506761Y-74265619D02*
X116078190Y-75265619D01*
X117316285Y-74598952D02*
X117316285Y-75265619D01*
X117078190Y-74218000D02*
X116840095Y-74932285D01*
X116840095Y-74932285D02*
X117459142Y-74932285D01*
X118030571Y-74265619D02*
X118125809Y-74265619D01*
X118125809Y-74265619D02*
X118221047Y-74313238D01*
X118221047Y-74313238D02*
X118268666Y-74360857D01*
X118268666Y-74360857D02*
X118316285Y-74456095D01*
X118316285Y-74456095D02*
X118363904Y-74646571D01*
X118363904Y-74646571D02*
X118363904Y-74884666D01*
X118363904Y-74884666D02*
X118316285Y-75075142D01*
X118316285Y-75075142D02*
X118268666Y-75170380D01*
X118268666Y-75170380D02*
X118221047Y-75218000D01*
X118221047Y-75218000D02*
X118125809Y-75265619D01*
X118125809Y-75265619D02*
X118030571Y-75265619D01*
X118030571Y-75265619D02*
X117935333Y-75218000D01*
X117935333Y-75218000D02*
X117887714Y-75170380D01*
X117887714Y-75170380D02*
X117840095Y-75075142D01*
X117840095Y-75075142D02*
X117792476Y-74884666D01*
X117792476Y-74884666D02*
X117792476Y-74646571D01*
X117792476Y-74646571D02*
X117840095Y-74456095D01*
X117840095Y-74456095D02*
X117887714Y-74360857D01*
X117887714Y-74360857D02*
X117935333Y-74313238D01*
X117935333Y-74313238D02*
X118030571Y-74265619D01*
X119221047Y-74265619D02*
X119030571Y-74265619D01*
X119030571Y-74265619D02*
X118935333Y-74313238D01*
X118935333Y-74313238D02*
X118887714Y-74360857D01*
X118887714Y-74360857D02*
X118792476Y-74503714D01*
X118792476Y-74503714D02*
X118744857Y-74694190D01*
X118744857Y-74694190D02*
X118744857Y-75075142D01*
X118744857Y-75075142D02*
X118792476Y-75170380D01*
X118792476Y-75170380D02*
X118840095Y-75218000D01*
X118840095Y-75218000D02*
X118935333Y-75265619D01*
X118935333Y-75265619D02*
X119125809Y-75265619D01*
X119125809Y-75265619D02*
X119221047Y-75218000D01*
X119221047Y-75218000D02*
X119268666Y-75170380D01*
X119268666Y-75170380D02*
X119316285Y-75075142D01*
X119316285Y-75075142D02*
X119316285Y-74837047D01*
X119316285Y-74837047D02*
X119268666Y-74741809D01*
X119268666Y-74741809D02*
X119221047Y-74694190D01*
X119221047Y-74694190D02*
X119125809Y-74646571D01*
X119125809Y-74646571D02*
X118935333Y-74646571D01*
X118935333Y-74646571D02*
X118840095Y-74694190D01*
X118840095Y-74694190D02*
X118792476Y-74741809D01*
X118792476Y-74741809D02*
X118744857Y-74837047D01*
G04 #@! TO.C,*
X114688952Y-91902619D02*
X114117524Y-91902619D01*
X114403238Y-91902619D02*
X114403238Y-90902619D01*
X114403238Y-90902619D02*
X114308000Y-91045476D01*
X114308000Y-91045476D02*
X114212762Y-91140714D01*
X114212762Y-91140714D02*
X114117524Y-91188333D01*
X115117524Y-91902619D02*
X115117524Y-90902619D01*
X115212762Y-91521666D02*
X115498476Y-91902619D01*
X115498476Y-91235952D02*
X115117524Y-91616904D01*
G04 #@! TO.C,Level Shifter*
X128667379Y-77297619D02*
X128191189Y-77297619D01*
X128191189Y-77297619D02*
X128191189Y-76297619D01*
X129381665Y-77250000D02*
X129286427Y-77297619D01*
X129286427Y-77297619D02*
X129095951Y-77297619D01*
X129095951Y-77297619D02*
X129000713Y-77250000D01*
X129000713Y-77250000D02*
X128953094Y-77154761D01*
X128953094Y-77154761D02*
X128953094Y-76773809D01*
X128953094Y-76773809D02*
X129000713Y-76678571D01*
X129000713Y-76678571D02*
X129095951Y-76630952D01*
X129095951Y-76630952D02*
X129286427Y-76630952D01*
X129286427Y-76630952D02*
X129381665Y-76678571D01*
X129381665Y-76678571D02*
X129429284Y-76773809D01*
X129429284Y-76773809D02*
X129429284Y-76869047D01*
X129429284Y-76869047D02*
X128953094Y-76964285D01*
X129762618Y-76630952D02*
X130000713Y-77297619D01*
X130000713Y-77297619D02*
X130238808Y-76630952D01*
X131000713Y-77250000D02*
X130905475Y-77297619D01*
X130905475Y-77297619D02*
X130714999Y-77297619D01*
X130714999Y-77297619D02*
X130619761Y-77250000D01*
X130619761Y-77250000D02*
X130572142Y-77154761D01*
X130572142Y-77154761D02*
X130572142Y-76773809D01*
X130572142Y-76773809D02*
X130619761Y-76678571D01*
X130619761Y-76678571D02*
X130714999Y-76630952D01*
X130714999Y-76630952D02*
X130905475Y-76630952D01*
X130905475Y-76630952D02*
X131000713Y-76678571D01*
X131000713Y-76678571D02*
X131048332Y-76773809D01*
X131048332Y-76773809D02*
X131048332Y-76869047D01*
X131048332Y-76869047D02*
X130572142Y-76964285D01*
X131619761Y-77297619D02*
X131524523Y-77250000D01*
X131524523Y-77250000D02*
X131476904Y-77154761D01*
X131476904Y-77154761D02*
X131476904Y-76297619D01*
X132715000Y-77250000D02*
X132857857Y-77297619D01*
X132857857Y-77297619D02*
X133095952Y-77297619D01*
X133095952Y-77297619D02*
X133191190Y-77250000D01*
X133191190Y-77250000D02*
X133238809Y-77202380D01*
X133238809Y-77202380D02*
X133286428Y-77107142D01*
X133286428Y-77107142D02*
X133286428Y-77011904D01*
X133286428Y-77011904D02*
X133238809Y-76916666D01*
X133238809Y-76916666D02*
X133191190Y-76869047D01*
X133191190Y-76869047D02*
X133095952Y-76821428D01*
X133095952Y-76821428D02*
X132905476Y-76773809D01*
X132905476Y-76773809D02*
X132810238Y-76726190D01*
X132810238Y-76726190D02*
X132762619Y-76678571D01*
X132762619Y-76678571D02*
X132715000Y-76583333D01*
X132715000Y-76583333D02*
X132715000Y-76488095D01*
X132715000Y-76488095D02*
X132762619Y-76392857D01*
X132762619Y-76392857D02*
X132810238Y-76345238D01*
X132810238Y-76345238D02*
X132905476Y-76297619D01*
X132905476Y-76297619D02*
X133143571Y-76297619D01*
X133143571Y-76297619D02*
X133286428Y-76345238D01*
X133715000Y-77297619D02*
X133715000Y-76297619D01*
X134143571Y-77297619D02*
X134143571Y-76773809D01*
X134143571Y-76773809D02*
X134095952Y-76678571D01*
X134095952Y-76678571D02*
X134000714Y-76630952D01*
X134000714Y-76630952D02*
X133857857Y-76630952D01*
X133857857Y-76630952D02*
X133762619Y-76678571D01*
X133762619Y-76678571D02*
X133715000Y-76726190D01*
X134619762Y-77297619D02*
X134619762Y-76630952D01*
X134619762Y-76297619D02*
X134572143Y-76345238D01*
X134572143Y-76345238D02*
X134619762Y-76392857D01*
X134619762Y-76392857D02*
X134667381Y-76345238D01*
X134667381Y-76345238D02*
X134619762Y-76297619D01*
X134619762Y-76297619D02*
X134619762Y-76392857D01*
X134953095Y-76630952D02*
X135334047Y-76630952D01*
X135095952Y-77297619D02*
X135095952Y-76440476D01*
X135095952Y-76440476D02*
X135143571Y-76345238D01*
X135143571Y-76345238D02*
X135238809Y-76297619D01*
X135238809Y-76297619D02*
X135334047Y-76297619D01*
X135524524Y-76630952D02*
X135905476Y-76630952D01*
X135667381Y-76297619D02*
X135667381Y-77154761D01*
X135667381Y-77154761D02*
X135715000Y-77250000D01*
X135715000Y-77250000D02*
X135810238Y-77297619D01*
X135810238Y-77297619D02*
X135905476Y-77297619D01*
X136619762Y-77250000D02*
X136524524Y-77297619D01*
X136524524Y-77297619D02*
X136334048Y-77297619D01*
X136334048Y-77297619D02*
X136238810Y-77250000D01*
X136238810Y-77250000D02*
X136191191Y-77154761D01*
X136191191Y-77154761D02*
X136191191Y-76773809D01*
X136191191Y-76773809D02*
X136238810Y-76678571D01*
X136238810Y-76678571D02*
X136334048Y-76630952D01*
X136334048Y-76630952D02*
X136524524Y-76630952D01*
X136524524Y-76630952D02*
X136619762Y-76678571D01*
X136619762Y-76678571D02*
X136667381Y-76773809D01*
X136667381Y-76773809D02*
X136667381Y-76869047D01*
X136667381Y-76869047D02*
X136191191Y-76964285D01*
X137095953Y-77297619D02*
X137095953Y-76630952D01*
X137095953Y-76821428D02*
X137143572Y-76726190D01*
X137143572Y-76726190D02*
X137191191Y-76678571D01*
X137191191Y-76678571D02*
X137286429Y-76630952D01*
X137286429Y-76630952D02*
X137381667Y-76630952D01*
G04 #@! TO.C,*
D12*
X131297190Y-67529385D02*
X131341952Y-67484623D01*
X131341952Y-67484623D02*
X131431476Y-67439861D01*
X131431476Y-67439861D02*
X131655285Y-67439861D01*
X131655285Y-67439861D02*
X131744809Y-67484623D01*
X131744809Y-67484623D02*
X131789571Y-67529385D01*
X131789571Y-67529385D02*
X131834333Y-67618909D01*
X131834333Y-67618909D02*
X131834333Y-67708433D01*
X131834333Y-67708433D02*
X131789571Y-67842719D01*
X131789571Y-67842719D02*
X131252428Y-68379861D01*
X131252428Y-68379861D02*
X131834333Y-68379861D01*
X132192428Y-67529385D02*
X132237190Y-67484623D01*
X132237190Y-67484623D02*
X132326714Y-67439861D01*
X132326714Y-67439861D02*
X132550523Y-67439861D01*
X132550523Y-67439861D02*
X132640047Y-67484623D01*
X132640047Y-67484623D02*
X132684809Y-67529385D01*
X132684809Y-67529385D02*
X132729571Y-67618909D01*
X132729571Y-67618909D02*
X132729571Y-67708433D01*
X132729571Y-67708433D02*
X132684809Y-67842719D01*
X132684809Y-67842719D02*
X132147666Y-68379861D01*
X132147666Y-68379861D02*
X132729571Y-68379861D01*
X133535285Y-67753195D02*
X133535285Y-68379861D01*
X133311476Y-67395100D02*
X133087666Y-68066528D01*
X133087666Y-68066528D02*
X133669571Y-68066528D01*
D11*
D13*
X110198001Y-86938729D02*
G75*
G03*
X111969379Y-87047226I799999J-1453271D01*
G01*
G04 #@! TO.C,U1*
X114952000Y-65853000D02*
X114952000Y-83753000D01*
X114952000Y-83753000D02*
X120252000Y-83753000D01*
X116602000Y-65853000D02*
X114952000Y-65853000D01*
X120252000Y-65853000D02*
X118602000Y-65853000D01*
X120252000Y-83753000D02*
X120252000Y-65853000D01*
X116602000Y-65853000D02*
G75*
G03*
X118602000Y-65853000I1000000J0D01*
G01*
G04 #@! TO.C,*
X114008001Y-86938729D02*
G75*
G03*
X115779379Y-87047226I799999J-1453271D01*
G01*
D11*
G04 #@! TO.C,Level Shifter*
X125222000Y-82931000D02*
X125222000Y-70739000D01*
X139954000Y-82931000D02*
X125222000Y-82931000D01*
X125222000Y-70739000D02*
X139954000Y-70739000D01*
X139954000Y-70739000D02*
X139954000Y-82931000D01*
D13*
G04 #@! TO.C,*
X129991000Y-66575000D02*
X129991000Y-66890000D01*
X129991000Y-66575000D02*
X134931000Y-66575000D01*
X129991000Y-69000000D02*
X129991000Y-69315000D01*
X129991000Y-69315000D02*
X134931000Y-69315000D01*
X134931000Y-66575000D02*
X134931000Y-66890000D01*
X134931000Y-69000000D02*
X134931000Y-69315000D01*
X117288000Y-89849000D02*
X117288000Y-88519000D01*
X118618000Y-89849000D02*
X117288000Y-89849000D01*
X119888000Y-89849000D02*
X140268000Y-89849000D01*
X119888000Y-89849000D02*
X119888000Y-87189000D01*
X140268000Y-89849000D02*
X140268000Y-87189000D01*
X119888000Y-87189000D02*
X140268000Y-87189000D01*
G04 #@! TD*
M02*
