G04 #@! TF.GenerationSoftware,KiCad,Pcbnew,7.0.2*
G04 #@! TF.CreationDate,2025-03-19T22:04:08+13:00*
G04 #@! TF.ProjectId,C128_Pi1541_Interface,43313238-5f50-4693-9135-34315f496e74,rev?*
G04 #@! TF.SameCoordinates,Original*
G04 #@! TF.FileFunction,Soldermask,Top*
G04 #@! TF.FilePolarity,Negative*
%FSLAX46Y46*%
G04 Gerber Fmt 4.6, Leading zero omitted, Abs format (unit mm)*
G04 Created by KiCad (PCBNEW 7.0.2) date 2025-03-19 22:04:08*
%MOMM*%
%LPD*%
G01*
G04 APERTURE LIST*
%ADD10R,1.700000X1.700000*%
%ADD11C,1.600000*%
%ADD12O,1.600000X1.600000*%
%ADD13R,1.600000X1.600000*%
%ADD14C,1.700000*%
%ADD15O,1.700000X1.700000*%
G04 APERTURE END LIST*
D10*
G04 #@! TO.C,*
X138430000Y-66167000D03*
G04 #@! TD*
D11*
G04 #@! TO.C,*
X110998000Y-88392000D03*
D12*
X110998000Y-85852000D03*
G04 #@! TD*
D13*
G04 #@! TO.C,U1*
X113792000Y-67183000D03*
D12*
X113792000Y-69723000D03*
X113792000Y-72263000D03*
X113792000Y-74803000D03*
X113792000Y-77343000D03*
X113792000Y-79883000D03*
X113792000Y-82423000D03*
X121412000Y-82423000D03*
X121412000Y-79883000D03*
X121412000Y-77343000D03*
X121412000Y-74803000D03*
X121412000Y-72263000D03*
X121412000Y-69723000D03*
X121412000Y-67183000D03*
G04 #@! TD*
D11*
G04 #@! TO.C,*
X114808000Y-88392000D03*
D12*
X114808000Y-85852000D03*
G04 #@! TD*
D14*
G04 #@! TO.C,Level Shifter*
X126238000Y-81915000D03*
X128778000Y-81915000D03*
X131318000Y-81915000D03*
X133858000Y-81915000D03*
X136398000Y-81915000D03*
X138938000Y-81915000D03*
X138938000Y-71755000D03*
X136398000Y-71755000D03*
X133858000Y-71755000D03*
X131318000Y-71755000D03*
X128778000Y-71755000D03*
X126238000Y-71755000D03*
G04 #@! TD*
D11*
G04 #@! TO.C,*
X129961000Y-67945000D03*
X134961000Y-67945000D03*
G04 #@! TD*
D10*
G04 #@! TO.C,*
X118618000Y-88519000D03*
D15*
X121158000Y-88519000D03*
X123698000Y-88519000D03*
X126238000Y-88519000D03*
X128778000Y-88519000D03*
X131318000Y-88519000D03*
X133858000Y-88519000D03*
X136398000Y-88519000D03*
X138938000Y-88519000D03*
G04 #@! TD*
D10*
G04 #@! TO.C,*
X123190000Y-63627000D03*
D15*
X125730000Y-63627000D03*
X128270000Y-63627000D03*
X130810000Y-63627000D03*
X133350000Y-63627000D03*
X135890000Y-63627000D03*
X138430000Y-63627000D03*
G04 #@! TD*
M02*
