G04 #@! TF.GenerationSoftware,KiCad,Pcbnew,7.0.2*
G04 #@! TF.CreationDate,2025-03-19T22:04:08+13:00*
G04 #@! TF.ProjectId,C128_Pi1541_Interface,43313238-5f50-4693-9135-34315f496e74,rev?*
G04 #@! TF.SameCoordinates,Original*
G04 #@! TF.FileFunction,Legend,Bot*
G04 #@! TF.FilePolarity,Positive*
%FSLAX46Y46*%
G04 Gerber Fmt 4.6, Leading zero omitted, Abs format (unit mm)*
G04 Created by KiCad (PCBNEW 7.0.2) date 2025-03-19 22:04:08*
%MOMM*%
%LPD*%
G01*
G04 APERTURE LIST*
%ADD10C,0.150000*%
%ADD11C,0.300000*%
%ADD12C,0.120000*%
G04 APERTURE END LIST*
D10*
X139049142Y-93952952D02*
X138858666Y-94619619D01*
X138858666Y-94619619D02*
X138668190Y-94143428D01*
X138668190Y-94143428D02*
X138477714Y-94619619D01*
X138477714Y-94619619D02*
X138287238Y-93952952D01*
X138001523Y-93952952D02*
X137811047Y-94619619D01*
X137811047Y-94619619D02*
X137620571Y-94143428D01*
X137620571Y-94143428D02*
X137430095Y-94619619D01*
X137430095Y-94619619D02*
X137239619Y-93952952D01*
X136953904Y-93952952D02*
X136763428Y-94619619D01*
X136763428Y-94619619D02*
X136572952Y-94143428D01*
X136572952Y-94143428D02*
X136382476Y-94619619D01*
X136382476Y-94619619D02*
X136192000Y-93952952D01*
X135811047Y-94524380D02*
X135763428Y-94572000D01*
X135763428Y-94572000D02*
X135811047Y-94619619D01*
X135811047Y-94619619D02*
X135858666Y-94572000D01*
X135858666Y-94572000D02*
X135811047Y-94524380D01*
X135811047Y-94524380D02*
X135811047Y-94619619D01*
X135430095Y-93952952D02*
X135192000Y-94619619D01*
X134953905Y-93952952D02*
X135192000Y-94619619D01*
X135192000Y-94619619D02*
X135287238Y-94857714D01*
X135287238Y-94857714D02*
X135334857Y-94905333D01*
X135334857Y-94905333D02*
X135430095Y-94952952D01*
X134430095Y-94619619D02*
X134525333Y-94572000D01*
X134525333Y-94572000D02*
X134572952Y-94524380D01*
X134572952Y-94524380D02*
X134620571Y-94429142D01*
X134620571Y-94429142D02*
X134620571Y-94143428D01*
X134620571Y-94143428D02*
X134572952Y-94048190D01*
X134572952Y-94048190D02*
X134525333Y-94000571D01*
X134525333Y-94000571D02*
X134430095Y-93952952D01*
X134430095Y-93952952D02*
X134287238Y-93952952D01*
X134287238Y-93952952D02*
X134192000Y-94000571D01*
X134192000Y-94000571D02*
X134144381Y-94048190D01*
X134144381Y-94048190D02*
X134096762Y-94143428D01*
X134096762Y-94143428D02*
X134096762Y-94429142D01*
X134096762Y-94429142D02*
X134144381Y-94524380D01*
X134144381Y-94524380D02*
X134192000Y-94572000D01*
X134192000Y-94572000D02*
X134287238Y-94619619D01*
X134287238Y-94619619D02*
X134430095Y-94619619D01*
X133239619Y-93952952D02*
X133239619Y-94619619D01*
X133668190Y-93952952D02*
X133668190Y-94476761D01*
X133668190Y-94476761D02*
X133620571Y-94572000D01*
X133620571Y-94572000D02*
X133525333Y-94619619D01*
X133525333Y-94619619D02*
X133382476Y-94619619D01*
X133382476Y-94619619D02*
X133287238Y-94572000D01*
X133287238Y-94572000D02*
X133239619Y-94524380D01*
X132906285Y-93952952D02*
X132525333Y-93952952D01*
X132763428Y-93619619D02*
X132763428Y-94476761D01*
X132763428Y-94476761D02*
X132715809Y-94572000D01*
X132715809Y-94572000D02*
X132620571Y-94619619D01*
X132620571Y-94619619D02*
X132525333Y-94619619D01*
X131763428Y-93952952D02*
X131763428Y-94619619D01*
X132191999Y-93952952D02*
X132191999Y-94476761D01*
X132191999Y-94476761D02*
X132144380Y-94572000D01*
X132144380Y-94572000D02*
X132049142Y-94619619D01*
X132049142Y-94619619D02*
X131906285Y-94619619D01*
X131906285Y-94619619D02*
X131811047Y-94572000D01*
X131811047Y-94572000D02*
X131763428Y-94524380D01*
X131287237Y-94619619D02*
X131287237Y-93619619D01*
X131287237Y-94000571D02*
X131191999Y-93952952D01*
X131191999Y-93952952D02*
X131001523Y-93952952D01*
X131001523Y-93952952D02*
X130906285Y-94000571D01*
X130906285Y-94000571D02*
X130858666Y-94048190D01*
X130858666Y-94048190D02*
X130811047Y-94143428D01*
X130811047Y-94143428D02*
X130811047Y-94429142D01*
X130811047Y-94429142D02*
X130858666Y-94524380D01*
X130858666Y-94524380D02*
X130906285Y-94572000D01*
X130906285Y-94572000D02*
X131001523Y-94619619D01*
X131001523Y-94619619D02*
X131191999Y-94619619D01*
X131191999Y-94619619D02*
X131287237Y-94572000D01*
X130001523Y-94572000D02*
X130096761Y-94619619D01*
X130096761Y-94619619D02*
X130287237Y-94619619D01*
X130287237Y-94619619D02*
X130382475Y-94572000D01*
X130382475Y-94572000D02*
X130430094Y-94476761D01*
X130430094Y-94476761D02*
X130430094Y-94095809D01*
X130430094Y-94095809D02*
X130382475Y-94000571D01*
X130382475Y-94000571D02*
X130287237Y-93952952D01*
X130287237Y-93952952D02*
X130096761Y-93952952D01*
X130096761Y-93952952D02*
X130001523Y-94000571D01*
X130001523Y-94000571D02*
X129953904Y-94095809D01*
X129953904Y-94095809D02*
X129953904Y-94191047D01*
X129953904Y-94191047D02*
X130430094Y-94286285D01*
X129525332Y-94524380D02*
X129477713Y-94572000D01*
X129477713Y-94572000D02*
X129525332Y-94619619D01*
X129525332Y-94619619D02*
X129572951Y-94572000D01*
X129572951Y-94572000D02*
X129525332Y-94524380D01*
X129525332Y-94524380D02*
X129525332Y-94619619D01*
X128620571Y-94572000D02*
X128715809Y-94619619D01*
X128715809Y-94619619D02*
X128906285Y-94619619D01*
X128906285Y-94619619D02*
X129001523Y-94572000D01*
X129001523Y-94572000D02*
X129049142Y-94524380D01*
X129049142Y-94524380D02*
X129096761Y-94429142D01*
X129096761Y-94429142D02*
X129096761Y-94143428D01*
X129096761Y-94143428D02*
X129049142Y-94048190D01*
X129049142Y-94048190D02*
X129001523Y-94000571D01*
X129001523Y-94000571D02*
X128906285Y-93952952D01*
X128906285Y-93952952D02*
X128715809Y-93952952D01*
X128715809Y-93952952D02*
X128620571Y-94000571D01*
X128049142Y-94619619D02*
X128144380Y-94572000D01*
X128144380Y-94572000D02*
X128191999Y-94524380D01*
X128191999Y-94524380D02*
X128239618Y-94429142D01*
X128239618Y-94429142D02*
X128239618Y-94143428D01*
X128239618Y-94143428D02*
X128191999Y-94048190D01*
X128191999Y-94048190D02*
X128144380Y-94000571D01*
X128144380Y-94000571D02*
X128049142Y-93952952D01*
X128049142Y-93952952D02*
X127906285Y-93952952D01*
X127906285Y-93952952D02*
X127811047Y-94000571D01*
X127811047Y-94000571D02*
X127763428Y-94048190D01*
X127763428Y-94048190D02*
X127715809Y-94143428D01*
X127715809Y-94143428D02*
X127715809Y-94429142D01*
X127715809Y-94429142D02*
X127763428Y-94524380D01*
X127763428Y-94524380D02*
X127811047Y-94572000D01*
X127811047Y-94572000D02*
X127906285Y-94619619D01*
X127906285Y-94619619D02*
X128049142Y-94619619D01*
X127287237Y-94619619D02*
X127287237Y-93952952D01*
X127287237Y-94048190D02*
X127239618Y-94000571D01*
X127239618Y-94000571D02*
X127144380Y-93952952D01*
X127144380Y-93952952D02*
X127001523Y-93952952D01*
X127001523Y-93952952D02*
X126906285Y-94000571D01*
X126906285Y-94000571D02*
X126858666Y-94095809D01*
X126858666Y-94095809D02*
X126858666Y-94619619D01*
X126858666Y-94095809D02*
X126811047Y-94000571D01*
X126811047Y-94000571D02*
X126715809Y-93952952D01*
X126715809Y-93952952D02*
X126572952Y-93952952D01*
X126572952Y-93952952D02*
X126477713Y-94000571D01*
X126477713Y-94000571D02*
X126430094Y-94095809D01*
X126430094Y-94095809D02*
X126430094Y-94619619D01*
X125239619Y-93572000D02*
X126096761Y-94857714D01*
X124287238Y-94143428D02*
X124334857Y-94095809D01*
X124334857Y-94095809D02*
X124430095Y-94048190D01*
X124430095Y-94048190D02*
X124525333Y-94048190D01*
X124525333Y-94048190D02*
X124620571Y-94095809D01*
X124620571Y-94095809D02*
X124668190Y-94143428D01*
X124668190Y-94143428D02*
X124715809Y-94238666D01*
X124715809Y-94238666D02*
X124715809Y-94333904D01*
X124715809Y-94333904D02*
X124668190Y-94429142D01*
X124668190Y-94429142D02*
X124620571Y-94476761D01*
X124620571Y-94476761D02*
X124525333Y-94524380D01*
X124525333Y-94524380D02*
X124430095Y-94524380D01*
X124430095Y-94524380D02*
X124334857Y-94476761D01*
X124334857Y-94476761D02*
X124287238Y-94429142D01*
X124287238Y-94048190D02*
X124287238Y-94429142D01*
X124287238Y-94429142D02*
X124239619Y-94476761D01*
X124239619Y-94476761D02*
X124192000Y-94476761D01*
X124192000Y-94476761D02*
X124096761Y-94429142D01*
X124096761Y-94429142D02*
X124049142Y-94333904D01*
X124049142Y-94333904D02*
X124049142Y-94095809D01*
X124049142Y-94095809D02*
X124144381Y-93952952D01*
X124144381Y-93952952D02*
X124287238Y-93857714D01*
X124287238Y-93857714D02*
X124477714Y-93810095D01*
X124477714Y-93810095D02*
X124668190Y-93857714D01*
X124668190Y-93857714D02*
X124811047Y-93952952D01*
X124811047Y-93952952D02*
X124906285Y-94095809D01*
X124906285Y-94095809D02*
X124953904Y-94286285D01*
X124953904Y-94286285D02*
X124906285Y-94476761D01*
X124906285Y-94476761D02*
X124811047Y-94619619D01*
X124811047Y-94619619D02*
X124668190Y-94714857D01*
X124668190Y-94714857D02*
X124477714Y-94762476D01*
X124477714Y-94762476D02*
X124287238Y-94714857D01*
X124287238Y-94714857D02*
X124144381Y-94619619D01*
X123620571Y-94619619D02*
X123620571Y-93952952D01*
X123620571Y-94143428D02*
X123572952Y-94048190D01*
X123572952Y-94048190D02*
X123525333Y-94000571D01*
X123525333Y-94000571D02*
X123430095Y-93952952D01*
X123430095Y-93952952D02*
X123334857Y-93952952D01*
X122620571Y-94572000D02*
X122715809Y-94619619D01*
X122715809Y-94619619D02*
X122906285Y-94619619D01*
X122906285Y-94619619D02*
X123001523Y-94572000D01*
X123001523Y-94572000D02*
X123049142Y-94476761D01*
X123049142Y-94476761D02*
X123049142Y-94095809D01*
X123049142Y-94095809D02*
X123001523Y-94000571D01*
X123001523Y-94000571D02*
X122906285Y-93952952D01*
X122906285Y-93952952D02*
X122715809Y-93952952D01*
X122715809Y-93952952D02*
X122620571Y-94000571D01*
X122620571Y-94000571D02*
X122572952Y-94095809D01*
X122572952Y-94095809D02*
X122572952Y-94191047D01*
X122572952Y-94191047D02*
X123049142Y-94286285D01*
X122287237Y-93952952D02*
X121906285Y-93952952D01*
X122144380Y-93619619D02*
X122144380Y-94476761D01*
X122144380Y-94476761D02*
X122096761Y-94572000D01*
X122096761Y-94572000D02*
X122001523Y-94619619D01*
X122001523Y-94619619D02*
X121906285Y-94619619D01*
X121572951Y-94619619D02*
X121572951Y-93952952D01*
X121572951Y-94143428D02*
X121525332Y-94048190D01*
X121525332Y-94048190D02*
X121477713Y-94000571D01*
X121477713Y-94000571D02*
X121382475Y-93952952D01*
X121382475Y-93952952D02*
X121287237Y-93952952D01*
X120811046Y-94619619D02*
X120906284Y-94572000D01*
X120906284Y-94572000D02*
X120953903Y-94524380D01*
X120953903Y-94524380D02*
X121001522Y-94429142D01*
X121001522Y-94429142D02*
X121001522Y-94143428D01*
X121001522Y-94143428D02*
X120953903Y-94048190D01*
X120953903Y-94048190D02*
X120906284Y-94000571D01*
X120906284Y-94000571D02*
X120811046Y-93952952D01*
X120811046Y-93952952D02*
X120668189Y-93952952D01*
X120668189Y-93952952D02*
X120572951Y-94000571D01*
X120572951Y-94000571D02*
X120525332Y-94048190D01*
X120525332Y-94048190D02*
X120477713Y-94143428D01*
X120477713Y-94143428D02*
X120477713Y-94429142D01*
X120477713Y-94429142D02*
X120525332Y-94524380D01*
X120525332Y-94524380D02*
X120572951Y-94572000D01*
X120572951Y-94572000D02*
X120668189Y-94619619D01*
X120668189Y-94619619D02*
X120811046Y-94619619D01*
X120191998Y-93952952D02*
X119811046Y-93952952D01*
X120049141Y-93619619D02*
X120049141Y-94476761D01*
X120049141Y-94476761D02*
X120001522Y-94572000D01*
X120001522Y-94572000D02*
X119906284Y-94619619D01*
X119906284Y-94619619D02*
X119811046Y-94619619D01*
X119096760Y-94572000D02*
X119191998Y-94619619D01*
X119191998Y-94619619D02*
X119382474Y-94619619D01*
X119382474Y-94619619D02*
X119477712Y-94572000D01*
X119477712Y-94572000D02*
X119525331Y-94476761D01*
X119525331Y-94476761D02*
X119525331Y-94095809D01*
X119525331Y-94095809D02*
X119477712Y-94000571D01*
X119477712Y-94000571D02*
X119382474Y-93952952D01*
X119382474Y-93952952D02*
X119191998Y-93952952D01*
X119191998Y-93952952D02*
X119096760Y-94000571D01*
X119096760Y-94000571D02*
X119049141Y-94095809D01*
X119049141Y-94095809D02*
X119049141Y-94191047D01*
X119049141Y-94191047D02*
X119525331Y-94286285D01*
X118191998Y-94572000D02*
X118287236Y-94619619D01*
X118287236Y-94619619D02*
X118477712Y-94619619D01*
X118477712Y-94619619D02*
X118572950Y-94572000D01*
X118572950Y-94572000D02*
X118620569Y-94524380D01*
X118620569Y-94524380D02*
X118668188Y-94429142D01*
X118668188Y-94429142D02*
X118668188Y-94143428D01*
X118668188Y-94143428D02*
X118620569Y-94048190D01*
X118620569Y-94048190D02*
X118572950Y-94000571D01*
X118572950Y-94000571D02*
X118477712Y-93952952D01*
X118477712Y-93952952D02*
X118287236Y-93952952D01*
X118287236Y-93952952D02*
X118191998Y-94000571D01*
X117763426Y-94619619D02*
X117763426Y-93619619D01*
X117334855Y-94619619D02*
X117334855Y-94095809D01*
X117334855Y-94095809D02*
X117382474Y-94000571D01*
X117382474Y-94000571D02*
X117477712Y-93952952D01*
X117477712Y-93952952D02*
X117620569Y-93952952D01*
X117620569Y-93952952D02*
X117715807Y-94000571D01*
X117715807Y-94000571D02*
X117763426Y-94048190D01*
X116858664Y-94619619D02*
X116858664Y-93952952D01*
X116858664Y-93619619D02*
X116906283Y-93667238D01*
X116906283Y-93667238D02*
X116858664Y-93714857D01*
X116858664Y-93714857D02*
X116811045Y-93667238D01*
X116811045Y-93667238D02*
X116858664Y-93619619D01*
X116858664Y-93619619D02*
X116858664Y-93714857D01*
X116382474Y-93952952D02*
X116382474Y-94619619D01*
X116382474Y-94048190D02*
X116334855Y-94000571D01*
X116334855Y-94000571D02*
X116239617Y-93952952D01*
X116239617Y-93952952D02*
X116096760Y-93952952D01*
X116096760Y-93952952D02*
X116001522Y-94000571D01*
X116001522Y-94000571D02*
X115953903Y-94095809D01*
X115953903Y-94095809D02*
X115953903Y-94619619D01*
X115525331Y-94572000D02*
X115430093Y-94619619D01*
X115430093Y-94619619D02*
X115239617Y-94619619D01*
X115239617Y-94619619D02*
X115144379Y-94572000D01*
X115144379Y-94572000D02*
X115096760Y-94476761D01*
X115096760Y-94476761D02*
X115096760Y-94429142D01*
X115096760Y-94429142D02*
X115144379Y-94333904D01*
X115144379Y-94333904D02*
X115239617Y-94286285D01*
X115239617Y-94286285D02*
X115382474Y-94286285D01*
X115382474Y-94286285D02*
X115477712Y-94238666D01*
X115477712Y-94238666D02*
X115525331Y-94143428D01*
X115525331Y-94143428D02*
X115525331Y-94095809D01*
X115525331Y-94095809D02*
X115477712Y-94000571D01*
X115477712Y-94000571D02*
X115382474Y-93952952D01*
X115382474Y-93952952D02*
X115239617Y-93952952D01*
X115239617Y-93952952D02*
X115144379Y-94000571D01*
X114239617Y-94619619D02*
X114239617Y-94095809D01*
X114239617Y-94095809D02*
X114287236Y-94000571D01*
X114287236Y-94000571D02*
X114382474Y-93952952D01*
X114382474Y-93952952D02*
X114572950Y-93952952D01*
X114572950Y-93952952D02*
X114668188Y-94000571D01*
X114239617Y-94572000D02*
X114334855Y-94619619D01*
X114334855Y-94619619D02*
X114572950Y-94619619D01*
X114572950Y-94619619D02*
X114668188Y-94572000D01*
X114668188Y-94572000D02*
X114715807Y-94476761D01*
X114715807Y-94476761D02*
X114715807Y-94381523D01*
X114715807Y-94381523D02*
X114668188Y-94286285D01*
X114668188Y-94286285D02*
X114572950Y-94238666D01*
X114572950Y-94238666D02*
X114334855Y-94238666D01*
X114334855Y-94238666D02*
X114239617Y-94191047D01*
X113763426Y-93952952D02*
X113763426Y-94619619D01*
X113763426Y-94048190D02*
X113715807Y-94000571D01*
X113715807Y-94000571D02*
X113620569Y-93952952D01*
X113620569Y-93952952D02*
X113477712Y-93952952D01*
X113477712Y-93952952D02*
X113382474Y-94000571D01*
X113382474Y-94000571D02*
X113334855Y-94095809D01*
X113334855Y-94095809D02*
X113334855Y-94619619D01*
X112858664Y-94619619D02*
X112858664Y-93952952D01*
X112858664Y-93619619D02*
X112906283Y-93667238D01*
X112906283Y-93667238D02*
X112858664Y-93714857D01*
X112858664Y-93714857D02*
X112811045Y-93667238D01*
X112811045Y-93667238D02*
X112858664Y-93619619D01*
X112858664Y-93619619D02*
X112858664Y-93714857D01*
X112525331Y-93952952D02*
X112144379Y-93952952D01*
X112382474Y-93619619D02*
X112382474Y-94476761D01*
X112382474Y-94476761D02*
X112334855Y-94572000D01*
X112334855Y-94572000D02*
X112239617Y-94619619D01*
X112239617Y-94619619D02*
X112144379Y-94619619D01*
X111906283Y-93952952D02*
X111668188Y-94619619D01*
X111430093Y-93952952D02*
X111668188Y-94619619D01*
X111668188Y-94619619D02*
X111763426Y-94857714D01*
X111763426Y-94857714D02*
X111811045Y-94905333D01*
X111811045Y-94905333D02*
X111906283Y-94952952D01*
D11*
X139414285Y-75824857D02*
X138700000Y-75824857D01*
X139557142Y-76253428D02*
X139057142Y-74753428D01*
X139057142Y-74753428D02*
X138557142Y-76253428D01*
X137842857Y-76253428D02*
X137985714Y-76182000D01*
X137985714Y-76182000D02*
X138057143Y-76039142D01*
X138057143Y-76039142D02*
X138057143Y-74753428D01*
X137057143Y-76253428D02*
X137200000Y-76182000D01*
X137200000Y-76182000D02*
X137271429Y-76039142D01*
X137271429Y-76039142D02*
X137271429Y-74753428D01*
X135342858Y-76253428D02*
X135342858Y-74753428D01*
X135342858Y-75467714D02*
X134485715Y-75467714D01*
X134485715Y-76253428D02*
X134485715Y-74753428D01*
X133128572Y-76253428D02*
X133128572Y-75467714D01*
X133128572Y-75467714D02*
X133200000Y-75324857D01*
X133200000Y-75324857D02*
X133342857Y-75253428D01*
X133342857Y-75253428D02*
X133628572Y-75253428D01*
X133628572Y-75253428D02*
X133771429Y-75324857D01*
X133128572Y-76182000D02*
X133271429Y-76253428D01*
X133271429Y-76253428D02*
X133628572Y-76253428D01*
X133628572Y-76253428D02*
X133771429Y-76182000D01*
X133771429Y-76182000D02*
X133842857Y-76039142D01*
X133842857Y-76039142D02*
X133842857Y-75896285D01*
X133842857Y-75896285D02*
X133771429Y-75753428D01*
X133771429Y-75753428D02*
X133628572Y-75682000D01*
X133628572Y-75682000D02*
X133271429Y-75682000D01*
X133271429Y-75682000D02*
X133128572Y-75610571D01*
X132414286Y-76253428D02*
X132414286Y-75253428D01*
X132414286Y-74753428D02*
X132485714Y-74824857D01*
X132485714Y-74824857D02*
X132414286Y-74896285D01*
X132414286Y-74896285D02*
X132342857Y-74824857D01*
X132342857Y-74824857D02*
X132414286Y-74753428D01*
X132414286Y-74753428D02*
X132414286Y-74896285D01*
X131485714Y-76253428D02*
X131628571Y-76182000D01*
X131628571Y-76182000D02*
X131700000Y-76039142D01*
X131700000Y-76039142D02*
X131700000Y-74753428D01*
X139414285Y-78612000D02*
X139200000Y-78683428D01*
X139200000Y-78683428D02*
X138842857Y-78683428D01*
X138842857Y-78683428D02*
X138700000Y-78612000D01*
X138700000Y-78612000D02*
X138628571Y-78540571D01*
X138628571Y-78540571D02*
X138557142Y-78397714D01*
X138557142Y-78397714D02*
X138557142Y-78254857D01*
X138557142Y-78254857D02*
X138628571Y-78112000D01*
X138628571Y-78112000D02*
X138700000Y-78040571D01*
X138700000Y-78040571D02*
X138842857Y-77969142D01*
X138842857Y-77969142D02*
X139128571Y-77897714D01*
X139128571Y-77897714D02*
X139271428Y-77826285D01*
X139271428Y-77826285D02*
X139342857Y-77754857D01*
X139342857Y-77754857D02*
X139414285Y-77612000D01*
X139414285Y-77612000D02*
X139414285Y-77469142D01*
X139414285Y-77469142D02*
X139342857Y-77326285D01*
X139342857Y-77326285D02*
X139271428Y-77254857D01*
X139271428Y-77254857D02*
X139128571Y-77183428D01*
X139128571Y-77183428D02*
X138771428Y-77183428D01*
X138771428Y-77183428D02*
X138557142Y-77254857D01*
X138128571Y-77683428D02*
X137557143Y-77683428D01*
X137914286Y-77183428D02*
X137914286Y-78469142D01*
X137914286Y-78469142D02*
X137842857Y-78612000D01*
X137842857Y-78612000D02*
X137700000Y-78683428D01*
X137700000Y-78683428D02*
X137557143Y-78683428D01*
X136485714Y-78612000D02*
X136628571Y-78683428D01*
X136628571Y-78683428D02*
X136914286Y-78683428D01*
X136914286Y-78683428D02*
X137057143Y-78612000D01*
X137057143Y-78612000D02*
X137128571Y-78469142D01*
X137128571Y-78469142D02*
X137128571Y-77897714D01*
X137128571Y-77897714D02*
X137057143Y-77754857D01*
X137057143Y-77754857D02*
X136914286Y-77683428D01*
X136914286Y-77683428D02*
X136628571Y-77683428D01*
X136628571Y-77683428D02*
X136485714Y-77754857D01*
X136485714Y-77754857D02*
X136414286Y-77897714D01*
X136414286Y-77897714D02*
X136414286Y-78040571D01*
X136414286Y-78040571D02*
X137128571Y-78183428D01*
X135771429Y-77683428D02*
X135771429Y-79183428D01*
X135771429Y-77754857D02*
X135628572Y-77683428D01*
X135628572Y-77683428D02*
X135342857Y-77683428D01*
X135342857Y-77683428D02*
X135200000Y-77754857D01*
X135200000Y-77754857D02*
X135128572Y-77826285D01*
X135128572Y-77826285D02*
X135057143Y-77969142D01*
X135057143Y-77969142D02*
X135057143Y-78397714D01*
X135057143Y-78397714D02*
X135128572Y-78540571D01*
X135128572Y-78540571D02*
X135200000Y-78612000D01*
X135200000Y-78612000D02*
X135342857Y-78683428D01*
X135342857Y-78683428D02*
X135628572Y-78683428D01*
X135628572Y-78683428D02*
X135771429Y-78612000D01*
X134414286Y-78683428D02*
X134414286Y-77183428D01*
X133771429Y-78683428D02*
X133771429Y-77897714D01*
X133771429Y-77897714D02*
X133842857Y-77754857D01*
X133842857Y-77754857D02*
X133985714Y-77683428D01*
X133985714Y-77683428D02*
X134200000Y-77683428D01*
X134200000Y-77683428D02*
X134342857Y-77754857D01*
X134342857Y-77754857D02*
X134414286Y-77826285D01*
X132485714Y-78612000D02*
X132628571Y-78683428D01*
X132628571Y-78683428D02*
X132914286Y-78683428D01*
X132914286Y-78683428D02*
X133057143Y-78612000D01*
X133057143Y-78612000D02*
X133128571Y-78469142D01*
X133128571Y-78469142D02*
X133128571Y-77897714D01*
X133128571Y-77897714D02*
X133057143Y-77754857D01*
X133057143Y-77754857D02*
X132914286Y-77683428D01*
X132914286Y-77683428D02*
X132628571Y-77683428D01*
X132628571Y-77683428D02*
X132485714Y-77754857D01*
X132485714Y-77754857D02*
X132414286Y-77897714D01*
X132414286Y-77897714D02*
X132414286Y-78040571D01*
X132414286Y-78040571D02*
X133128571Y-78183428D01*
X131771429Y-77683428D02*
X131771429Y-78683428D01*
X131771429Y-77826285D02*
X131700000Y-77754857D01*
X131700000Y-77754857D02*
X131557143Y-77683428D01*
X131557143Y-77683428D02*
X131342857Y-77683428D01*
X131342857Y-77683428D02*
X131200000Y-77754857D01*
X131200000Y-77754857D02*
X131128572Y-77897714D01*
X131128572Y-77897714D02*
X131128572Y-78683428D01*
X129414286Y-77183428D02*
X129057143Y-78683428D01*
X129057143Y-78683428D02*
X128771429Y-77612000D01*
X128771429Y-77612000D02*
X128485714Y-78683428D01*
X128485714Y-78683428D02*
X128128572Y-77183428D01*
X127557143Y-78683428D02*
X127557143Y-77183428D01*
X126914286Y-78683428D02*
X126914286Y-77897714D01*
X126914286Y-77897714D02*
X126985714Y-77754857D01*
X126985714Y-77754857D02*
X127128571Y-77683428D01*
X127128571Y-77683428D02*
X127342857Y-77683428D01*
X127342857Y-77683428D02*
X127485714Y-77754857D01*
X127485714Y-77754857D02*
X127557143Y-77826285D01*
X126200000Y-78683428D02*
X126200000Y-77683428D01*
X126200000Y-77183428D02*
X126271428Y-77254857D01*
X126271428Y-77254857D02*
X126200000Y-77326285D01*
X126200000Y-77326285D02*
X126128571Y-77254857D01*
X126128571Y-77254857D02*
X126200000Y-77183428D01*
X126200000Y-77183428D02*
X126200000Y-77326285D01*
X125699999Y-77683428D02*
X125128571Y-77683428D01*
X125485714Y-77183428D02*
X125485714Y-78469142D01*
X125485714Y-78469142D02*
X125414285Y-78612000D01*
X125414285Y-78612000D02*
X125271428Y-78683428D01*
X125271428Y-78683428D02*
X125128571Y-78683428D01*
X124057142Y-78612000D02*
X124199999Y-78683428D01*
X124199999Y-78683428D02*
X124485714Y-78683428D01*
X124485714Y-78683428D02*
X124628571Y-78612000D01*
X124628571Y-78612000D02*
X124699999Y-78469142D01*
X124699999Y-78469142D02*
X124699999Y-77897714D01*
X124699999Y-77897714D02*
X124628571Y-77754857D01*
X124628571Y-77754857D02*
X124485714Y-77683428D01*
X124485714Y-77683428D02*
X124199999Y-77683428D01*
X124199999Y-77683428D02*
X124057142Y-77754857D01*
X124057142Y-77754857D02*
X123985714Y-77897714D01*
X123985714Y-77897714D02*
X123985714Y-78040571D01*
X123985714Y-78040571D02*
X124699999Y-78183428D01*
X123342857Y-78540571D02*
X123271428Y-78612000D01*
X123271428Y-78612000D02*
X123342857Y-78683428D01*
X123342857Y-78683428D02*
X123414285Y-78612000D01*
X123414285Y-78612000D02*
X123342857Y-78540571D01*
X123342857Y-78540571D02*
X123342857Y-78683428D01*
X123342857Y-78112000D02*
X123414285Y-77254857D01*
X123414285Y-77254857D02*
X123342857Y-77183428D01*
X123342857Y-77183428D02*
X123271428Y-77254857D01*
X123271428Y-77254857D02*
X123342857Y-78112000D01*
X123342857Y-78112000D02*
X123342857Y-77183428D01*
D10*
G04 #@! TO.C,*
D12*
X139760000Y-67497000D02*
X137100000Y-67497000D01*
X139760000Y-67377000D02*
X139760000Y-67497000D01*
X137100000Y-67377000D02*
X137100000Y-67497000D01*
X139760000Y-62297000D02*
X139760000Y-64957000D01*
X124460000Y-62297000D02*
X139760000Y-62297000D01*
X124460000Y-62297000D02*
X124460000Y-64957000D01*
X121860000Y-63627000D02*
X121860000Y-64957000D01*
X124460000Y-64957000D02*
X139760000Y-64957000D01*
X121860000Y-64957000D02*
X123190000Y-64957000D01*
G04 #@! TD*
M02*
